<?xml version="1.0" standalone="no"?>
<!DOCTYPE svg PUBLIC "-//W3C//DTD SVG 20010904//EN"
 "http://www.w3.org/TR/2001/REC-SVG-20010904/DTD/svg10.dtd">
<svg version="1.0" xmlns="http://www.w3.org/2000/svg"
 width="700.000000pt" height="700.000000pt" viewBox="0 0 700.000000 700.000000"
 preserveAspectRatio="xMidYMid meet">
<metadata>
Created by potrace 1.11, written by Peter Selinger 2001-2013
</metadata>
<g transform="translate(0.000000,700.000000) scale(0.100000,-0.100000)"
fill="#000000" stroke="none">
<path d="M1336 4238 c-214 -524 -411 -996 -438 -1050 -64 -126 -118 -178 -217
-208 -67 -21 -71 -24 -71 -51 l0 -29 345 0 345 0 0 29 c0 28 -2 29 -67 41 -83
14 -119 32 -143 73 -31 50 -26 124 15 242 44 126 557 1385 565 1385 8 0 578
-1320 610 -1414 45 -129 44 -186 -5 -231 -33 -31 -67 -44 -167 -60 -34 -5 -38
-9 -38 -35 l0 -30 455 0 455 0 0 29 c0 27 -2 28 -71 40 -125 20 -164 54 -240
208 -27 55 -236 530 -464 1055 l-414 953 -33 3 -33 2 -389 -952z"/>
<path d="M3070 5108 c1 -28 67 -118 430 -582 l429 -549 -27 -32 c-15 -18 -207
-245 -427 -504 -336 -397 -400 -478 -403 -507 l-3 -34 864 0 865 0 5 23 c11
49 91 647 86 651 -2 2 -16 7 -31 11 -25 6 -28 4 -38 -36 -29 -108 -94 -212
-161 -260 -17 -12 -63 -33 -102 -48 l-72 -25 -520 -4 -520 -3 21 23 c93 103
747 884 747 893 0 9 -602 790 -661 858 -16 17 1 18 443 15 521 -4 530 -5 611
-80 56 -52 90 -124 109 -233 8 -48 15 -92 15 -96 0 -5 14 -9 30 -9 17 0 30 5
30 13 0 6 -9 125 -20 262 -11 138 -20 258 -20 268 0 16 -47 17 -840 17 l-840
0 0 -32z"/>
<path d="M5070 5111 c0 -28 0 -28 78 -34 130 -9 211 -60 229 -145 4 -20 8
-428 8 -907 0 -964 1 -950 -61 -1004 -42 -37 -119 -61 -196 -61 -58 0 -58 0
-58 -30 l0 -30 480 0 480 0 0 29 0 28 -78 5 c-98 6 -185 45 -216 98 -21 35
-21 45 -21 955 l0 920 25 44 c36 64 94 92 204 98 l86 6 0 28 0 29 -480 0 -480
0 0 -29z"/>
<path d="M1835 2140 c-22 -10 -33 -19 -24 -19 26 -1 29 -22 29 -181 0 -141 -1
-150 -22 -170 l-22 -20 65 0 c56 1 62 2 46 14 -12 10 -20 33 -24 70 -3 31 -3
56 0 56 16 0 88 -105 84 -122 -5 -16 2 -18 56 -18 56 1 60 2 43 15 -10 8 -22
16 -25 17 -4 2 -30 32 -59 67 l-53 63 42 37 c23 20 55 41 73 48 30 11 29 12
-28 12 -49 1 -57 -1 -47 -13 9 -11 3 -21 -30 -50 -24 -20 -46 -36 -51 -36 -4
0 -9 56 -10 124 l-3 125 -40 -19z"/>
<path d="M3365 2141 c-35 -16 -37 -18 -17 -23 22 -6 22 -9 22 -171 0 -159 -1
-165 -22 -180 -22 -15 -20 -16 45 -16 43 -1 66 3 62 9 -3 6 -13 10 -21 10 -12
0 -14 32 -14 195 0 107 -3 195 -7 194 -5 0 -26 -8 -48 -18z"/>
<path d="M3541 2150 c-19 -11 -9 -45 14 -45 13 0 21 8 23 21 3 23 -17 37 -37
24z"/>
<path d="M3905 2140 c-22 -10 -32 -19 -23 -19 24 -1 30 -46 26 -204 -3 -122
-5 -138 -23 -151 -18 -14 -15 -15 45 -15 60 0 64 1 45 15 -17 12 -21 29 -23
97 -3 73 -1 84 17 101 24 22 70 24 82 5 5 -8 9 -53 9 -100 0 -79 -2 -88 -22
-102 -22 -15 -20 -16 40 -16 35 -1 62 3 62 9 0 6 -6 10 -14 10 -10 0 -14 25
-18 105 -4 83 -9 109 -23 125 -24 27 -54 25 -98 -4 l-36 -25 -3 94 -3 94 -40
-19z"/>
<path d="M5271 2150 c-19 -11 -9 -45 14 -45 13 0 21 8 23 21 3 23 -17 37 -37
24z"/>
<path d="M831 2140 c-44 -11 -79 -37 -116 -89 -26 -37 -30 -51 -30 -110 0 -87
33 -142 102 -173 56 -25 151 -26 206 -4 l37 16 0 80 c0 74 2 81 23 90 16 6 -1
9 -58 8 -48 0 -70 -3 -55 -7 24 -6 25 -11 28 -89 l3 -81 -28 -7 c-15 -3 -33
-7 -40 -9 -25 -8 -83 17 -108 47 -37 43 -47 73 -47 139 0 104 55 175 137 173
51 -1 88 -23 115 -67 l20 -32 0 58 c0 52 -10 71 -24 48 -4 -5 -26 -3 -53 5
-51 15 -62 16 -112 4z"/>
<path d="M2395 2133 c43 -11 45 -19 45 -178 0 -160 -3 -185 -25 -185 -8 0 -17
-4 -20 -10 -4 -6 45 -10 138 -10 l145 0 16 40 c24 60 20 69 -14 28 -26 -32
-38 -38 -86 -44 -34 -4 -65 -2 -80 5 -22 10 -24 16 -24 86 l0 75 65 0 c61 0
66 -2 75 -25 15 -40 20 -30 20 43 -1 65 -1 66 -16 40 -14 -26 -19 -28 -80 -28
l-65 0 3 73 3 72 45 3 c71 5 108 -5 125 -36 l14 -27 1 43 0 42 -152 -1 c-84
-1 -144 -4 -133 -6z"/>
<path d="M4330 2127 c25 -13 25 -13 28 -179 l2 -167 -27 -15 c-26 -14 -17 -15
123 -16 l150 0 17 52 c19 61 16 72 -9 29 -25 -42 -51 -52 -124 -49 l-65 3 -3
162 -2 163 32 14 c32 14 30 14 -57 15 -79 1 -87 -1 -65 -12z"/>
<path d="M1115 2001 c-30 -15 -35 -20 -19 -20 25 -1 34 -33 34 -121 0 -67 -7
-90 -26 -90 -8 0 -14 -4 -14 -10 0 -6 29 -10 66 -10 41 0 63 4 59 10 -3 6 -12
10 -19 10 -18 0 -26 32 -26 106 0 79 21 111 62 95 23 -9 29 -7 37 8 7 12 6 22
-1 29 -19 19 -40 14 -70 -15 l-28 -27 0 27 c0 32 -3 32 -55 8z"/>
<path d="M1358 2004 c-39 -20 -58 -64 -58 -128 0 -48 4 -60 31 -91 26 -30 37
-35 73 -35 43 0 76 20 95 57 19 38 12 43 -18 12 -16 -16 -36 -29 -45 -29 -49
0 -96 51 -96 105 0 25 1 25 85 25 79 0 85 1 85 21 0 11 -13 34 -29 50 -33 33
-78 38 -123 13z m74 -21 c10 -9 18 -24 18 -35 0 -15 -8 -18 -55 -18 -60 0 -71
15 -38 52 20 22 51 23 75 1z"/>
<path d="M1621 2007 c-43 -22 -63 -59 -63 -119 -1 -89 37 -138 107 -137 43 0
61 10 88 49 27 39 20 51 -12 19 -33 -33 -50 -35 -89 -15 -30 15 -49 47 -54 86
-3 25 -2 25 85 28 80 3 87 4 87 23 0 11 -13 34 -29 50 -32 32 -78 38 -120 16z
m71 -24 c10 -9 18 -24 18 -35 0 -15 -8 -18 -55 -18 -60 0 -71 15 -38 52 20 22
51 23 75 1z"/>
<path d="M2760 2002 c-31 -14 -33 -16 -12 -20 21 -3 22 -7 22 -104 0 -84 -3
-103 -17 -114 -16 -12 -9 -13 47 -13 62 0 64 1 43 16 -21 14 -23 24 -23 98 0
66 3 85 18 97 28 24 48 28 71 12 19 -13 21 -25 21 -103 0 -81 -2 -90 -22 -104
-22 -15 -20 -16 42 -16 53 0 62 2 49 12 -12 9 -17 36 -21 115 -4 80 -9 106
-23 122 -25 27 -67 25 -104 -6 l-31 -26 0 26 c0 30 -10 31 -60 8z"/>
<path d="M3108 2005 c-51 -28 -65 -98 -28 -135 l20 -20 -22 -30 c-20 -28 -21
-31 -5 -47 15 -15 14 -18 -8 -45 -35 -42 -32 -66 10 -84 95 -39 215 6 215 82
0 46 -29 64 -105 64 -68 0 -89 9 -79 33 4 12 18 17 45 17 77 0 117 39 106 104
-5 33 -4 36 19 36 40 0 27 18 -18 24 -24 3 -61 8 -83 11 -26 3 -49 0 -67 -10z
m76 -8 c27 -20 34 -107 11 -130 -22 -22 -41 -21 -65 3 -29 29 -28 103 2 124
27 19 29 19 52 3z m40 -253 c40 -6 46 -10 46 -31 0 -33 -58 -57 -119 -49 -49
7 -71 20 -71 45 0 39 40 49 144 35z"/>
<path d="M3520 2002 c-31 -14 -33 -16 -12 -20 21 -3 22 -8 22 -102 0 -91 -2
-100 -22 -114 -21 -15 -19 -16 47 -15 67 0 69 1 48 16 -22 15 -23 22 -23 134
0 130 1 129 -60 101z"/>
<path d="M3685 1996 c-28 -29 -32 -67 -9 -90 8 -9 35 -28 60 -42 48 -28 67
-54 58 -78 -15 -40 -84 -25 -109 24 -8 16 -18 30 -20 30 -3 0 -5 -20 -5 -44
l0 -43 61 -2 c73 -2 104 14 114 59 8 39 -16 68 -88 108 -40 22 -47 30 -45 51
6 48 75 40 100 -11 l17 -33 0 45 1 45 -55 3 c-48 2 -59 -1 -80 -22z"/>
<path d="M4741 2007 c-43 -22 -63 -59 -63 -119 -1 -88 37 -137 107 -137 43 0
61 10 88 49 27 39 20 51 -12 19 -16 -16 -36 -29 -45 -29 -49 0 -96 51 -96 105
0 25 1 25 85 25 79 0 85 1 85 21 0 11 -13 34 -29 50 -32 32 -78 38 -120 16z
m71 -24 c10 -9 18 -24 18 -35 0 -15 -8 -18 -55 -18 -60 0 -71 15 -38 52 20 22
51 23 75 1z"/>
<path d="M5250 2002 c-31 -14 -33 -16 -12 -20 21 -3 22 -8 22 -101 0 -91 -2
-100 -22 -114 -22 -15 -19 -16 47 -16 66 0 69 1 48 16 -22 15 -23 22 -23 134
0 130 1 129 -60 101z"/>
<path d="M5447 2001 c-45 -29 -60 -58 -60 -115 0 -86 39 -135 105 -136 43 0
91 38 104 80 6 24 5 23 -24 -7 -62 -67 -142 -19 -142 85 0 80 79 127 103 62
13 -34 57 -44 57 -12 -1 55 -86 81 -143 43z"/>
<path d="M5708 2004 c-32 -17 -68 -81 -68 -119 0 -74 57 -135 125 -135 100 0
160 125 102 211 -39 57 -102 75 -159 43z m102 -36 c28 -46 35 -111 18 -156
-13 -34 -17 -37 -52 -37 -35 0 -41 4 -59 38 -27 52 -28 138 -3 166 30 33 72
27 96 -11z"/>
<path d="M5950 2004 c-34 -15 -34 -16 -12 -25 21 -8 22 -14 22 -103 0 -87 -2
-96 -22 -110 -21 -15 -19 -16 47 -15 58 0 66 2 48 11 -21 10 -23 18 -23 103
l0 93 32 15 c22 11 37 13 50 6 15 -8 18 -24 18 -108 0 -92 -1 -99 -22 -109
-19 -9 -11 -11 47 -11 66 0 69 1 48 16 -21 14 -23 23 -23 105 0 85 -9 124 -34
140 -22 15 -55 8 -85 -18 l-31 -26 0 26 c0 30 -11 31 -60 10z"/>
<path d="M4935 1999 c11 -5 37 -34 57 -63 l37 -53 -45 -56 c-24 -31 -49 -57
-54 -57 -6 0 -10 -4 -10 -10 0 -5 18 -10 40 -10 38 0 54 14 28 23 -9 2 -4 17
16 45 16 23 32 42 37 42 4 0 17 -16 30 -36 18 -30 20 -40 11 -55 -11 -18 -8
-19 48 -19 33 0 60 4 60 10 0 6 -6 10 -12 10 -12 1 -54 51 -92 111 -15 24 -15
27 16 68 17 24 40 47 52 51 16 7 9 9 -29 9 -32 1 -45 -2 -36 -8 11 -7 10 -14
-5 -40 -23 -39 -29 -39 -50 0 -13 26 -14 33 -2 40 8 5 -13 8 -52 8 -50 0 -60
-3 -45 -10z"/>
<path d="M2080 1890 c0 -6 57 -10 150 -10 93 0 150 4 150 10 0 6 -57 10 -150
10 -93 0 -150 -4 -150 -10z"/>
</g>
</svg>
