<?xml version="1.0" encoding="UTF-8" standalone="no"?>
<svg
   xmlns:dc="http://purl.org/dc/elements/1.1/"
   xmlns:cc="http://creativecommons.org/ns#"
   xmlns:rdf="http://www.w3.org/1999/02/22-rdf-syntax-ns#"
   xmlns:svg="http://www.w3.org/2000/svg"
   xmlns="http://www.w3.org/2000/svg"
   id="svg15"
   version="1.1"
   height="400"
   width="400">
  <metadata
     id="metadata21">
    <rdf:RDF>
      <cc:Work
         rdf:about="">
        <dc:format>image/svg+xml</dc:format>
        <dc:type
           rdf:resource="http://purl.org/dc/dcmitype/StillImage" />
      </cc:Work>
    </rdf:RDF>
  </metadata>
  <defs
     id="defs19" />
  <g
     id="g7">
    <title
       id="title2">background</title>
    <path
       id="canvas_background"
       d="M -1,-1 H 801.05267 V 801.05267 H -1 Z"
       style="fill:#ffffff" />
    <g
       style="display:none"
       display="none"
       id="canvasGrid">
      <path
         id="svg_3"
         d="M 0,0 H 400 V 400 H 0 Z"
         style="fill:url(#gridpattern);stroke-width:0" />
    </g>
  </g>
  <g
     id="g13">
    <title
       id="title9">text</title>
    <g
       id="svg_1"
       style="font-size:24px;font-family:'Times New Roman', Times, serif;text-anchor:start;fill:#000000;stroke:#000000;stroke-width:0"
       transform="matrix(8.0569071,0,0,8.0569071,-433.96161,-868.7825)"
       aria-label="ΛΣΙ">
      <path
         id="path25"
         style="font-size:24px;font-family:'Times New Roman', Times, serif;text-anchor:start;fill:#000000;stroke:#000000;stroke-width:0"
         d="m 58.176907,136.91132 v -0.4336 q 0.902343,-0.14062 1.382812,-0.58594 0.480469,-0.44531 1.007813,-1.71093 L 66.1105,120.65741 h 0.433594 l 5.90625,13.59375 q 0.597656,1.38281 1.03125,1.79297 0.433594,0.39844 1.523438,0.43359 v 0.4336 h -6.480469 v -0.4336 q 1.113281,-0.0937 1.429687,-0.375 0.328125,-0.28125 0.328125,-0.72656 0,-0.55078 -0.539062,-1.79297 l -4.042969,-9.31641 -3.75,9.19922 q -0.527344,1.27735 -0.527344,1.875 0,0.49219 0.328125,0.78516 0.328125,0.28125 1.324219,0.35156 v 0.4336 z" />
      <path
         id="path27"
         style="font-size:24px;font-family:'Times New Roman', Times, serif;text-anchor:start;fill:#000000;stroke:#000000;stroke-width:0"
         d="m 75.614407,121.02069 h 11.917968 l 0.316407,3.99609 h -0.445313 q -0.08203,-1.18359 -0.398437,-1.80468 -0.316407,-0.63282 -0.867188,-0.91407 -0.550781,-0.28125 -1.746094,-0.28125 h -5.425781 l 4.839844,6.21094 -5.507813,6.50391 h 6.035157 q 1.640625,0 2.507812,-0.52735 0.867188,-0.52734 1.300781,-2.20312 l 0.445313,0.10547 -0.679688,4.80469 H 75.614407 v -0.42188 l 6.117187,-7.21875 -6.117187,-7.82812 z" />
      <path
         id="path29"
         style="font-size:24px;font-family:'Times New Roman', Times, serif;text-anchor:start;fill:#000000;stroke:#000000;stroke-width:0"
         d="m 96.614407,136.47772 v 0.4336 h -6.808594 v -0.4336 h 0.5625 q 0.984375,0 1.429687,-0.57422 0.28125,-0.375 0.28125,-1.80468 v -10.26563 q 0,-1.20703 -0.152343,-1.59375 -0.117188,-0.29297 -0.480469,-0.50391 -0.515625,-0.28125 -1.078125,-0.28125 h -0.5625 v -0.43359 h 6.808594 v 0.43359 h -0.574219 q -0.972656,0 -1.417969,0.57422 -0.292969,0.375 -0.292969,1.80469 v 10.26563 q 0,1.20703 0.152344,1.59375 0.117188,0.29296 0.492188,0.5039 0.503906,0.28125 1.066406,0.28125 z" />
    </g>
    <g
       id="svg_2"
       style="font-size:24px;font-family:'Times New Roman', Times, serif;text-anchor:start;fill:#000000;stroke:#000000;stroke-width:0"
       transform="matrix(1.3863537,0,0,1.3863537,-37.405483,-103.76944)"
       aria-label="Greek–English Lexicon">
      <path
         id="path32"
         style="font-size:24px;font-family:'Times New Roman', Times, serif;text-anchor:start;fill:#000000;stroke:#000000;stroke-width:0"
         d="m 68.828011,274.86954 0.410156,5.01562 h -0.410156 q -0.621094,-1.875 -1.605469,-2.82422 -1.417969,-1.37109 -3.644531,-1.37109 -3.035157,0 -4.617188,2.40234 -1.324219,2.02735 -1.324219,4.82813 0,2.27344 0.878907,4.14844 0.878906,1.875 2.296875,2.7539 1.429687,0.86719 2.929687,0.86719 0.878906,0 1.699219,-0.22266 0.820312,-0.22265 1.582031,-0.65625 v -4.59375 q 0,-1.19531 -0.1875,-1.55859 -0.175781,-0.375 -0.5625,-0.5625 -0.375,-0.19922 -1.335937,-0.19922 v -0.44531 h 6.152343 v 0.44531 h -0.292968 q -0.914063,0 -1.253907,0.60938 -0.234375,0.43359 -0.234375,1.71093 v 4.86328 q -1.347656,0.72657 -2.660156,1.06641 -1.3125,0.33984 -2.917969,0.33984 -4.605468,0 -6.996093,-2.95312 -1.792969,-2.21484 -1.792969,-5.10938 0,-2.09765 1.007812,-4.01953 1.195313,-2.28515 3.28125,-3.51562 1.746094,-1.01953 4.125,-1.01953 0.867188,0 1.570313,0.14062 0.714844,0.14063 2.015625,0.6211 0.65625,0.24609 0.878906,0.24609 0.222656,0 0.375,-0.19922 0.164063,-0.21094 0.199219,-0.80859 z" />
      <path
         id="path34"
         style="font-size:24px;font-family:'Times New Roman', Times, serif;text-anchor:start;fill:#000000;stroke:#000000;stroke-width:0"
         d="m 75.331917,280.07266 v 2.41406 q 1.347656,-2.41406 2.765625,-2.41406 0.644531,0 1.066406,0.39844 0.421875,0.38672 0.421875,0.90234 0,0.45703 -0.304687,0.77344 -0.304688,0.31641 -0.726563,0.31641 -0.410156,0 -0.925781,-0.39844 -0.503906,-0.41016 -0.75,-0.41016 -0.210938,0 -0.457031,0.23438 -0.527344,0.48047 -1.089844,1.58203 v 5.14453 q 0,0.89063 0.222656,1.34766 0.152344,0.3164 0.539063,0.52734 0.386718,0.21094 1.113281,0.21094 v 0.42187 h -5.496094 v -0.42187 q 0.820313,0 1.21875,-0.25781 0.292969,-0.1875 0.410156,-0.59766 0.05859,-0.19922 0.05859,-1.13672 v -4.16016 q 0,-1.875 -0.08203,-2.22656 -0.07031,-0.36328 -0.28125,-0.52734 -0.199219,-0.16406 -0.503906,-0.16406 -0.363282,0 -0.820313,0.17578 l -0.117187,-0.42188 3.246093,-1.3125 z" />
      <path
         id="path36"
         style="font-size:24px;font-family:'Times New Roman', Times, serif;text-anchor:start;fill:#000000;stroke:#000000;stroke-width:0"
         d="m 82.011604,284.43204 q -0.01172,2.39062 1.160157,3.75 1.171875,1.35937 2.753906,1.35937 1.054687,0 1.828125,-0.57422 0.785156,-0.58593 1.3125,-1.99218 l 0.363281,0.23437 q -0.246094,1.60547 -1.429687,2.92969 -1.183594,1.3125 -2.964844,1.3125 -1.933594,0 -3.316406,-1.5 -1.371094,-1.51172 -1.371094,-4.05469 0,-2.75391 1.40625,-4.28906 1.417969,-1.54688 3.550781,-1.54688 1.804688,0 2.964844,1.19532 1.160156,1.18359 1.160156,3.17578 z m 0,-0.67969 h 4.96875 q -0.05859,-1.03125 -0.246093,-1.45313 -0.292969,-0.65625 -0.878907,-1.03125 -0.574218,-0.375 -1.207031,-0.375 -0.972656,0 -1.746094,0.76172 -0.761718,0.75 -0.890625,2.09766 z" />
      <path
         id="path38"
         style="font-size:24px;font-family:'Times New Roman', Times, serif;text-anchor:start;fill:#000000;stroke:#000000;stroke-width:0"
         d="m 92.652229,284.43204 q -0.01172,2.39062 1.160157,3.75 1.171875,1.35937 2.753906,1.35937 1.054687,0 1.828125,-0.57422 0.785156,-0.58593 1.3125,-1.99218 l 0.363283,0.23437 q -0.246096,1.60547 -1.429689,2.92969 -1.183594,1.3125 -2.964844,1.3125 -1.933594,0 -3.316406,-1.5 -1.371094,-1.51172 -1.371094,-4.05469 0,-2.75391 1.40625,-4.28906 1.417969,-1.54688 3.550781,-1.54688 1.804688,0 2.964844,1.19532 1.160158,1.18359 1.160158,3.17578 z m 0,-0.67969 h 4.96875 q -0.05859,-1.03125 -0.246093,-1.45313 -0.292969,-0.65625 -0.878907,-1.03125 -0.574218,-0.375 -1.207031,-0.375 -0.972656,0 -1.746094,0.76172 -0.761718,0.75 -0.890625,2.09766 z" />
      <path
         id="path40"
         style="font-size:24px;font-family:'Times New Roman', Times, serif;text-anchor:start;fill:#000000;stroke:#000000;stroke-width:0"
         d="m 104.66395,274.45938 v 10.6875 l 2.73047,-2.49609 q 0.86718,-0.79688 1.00781,-1.00782 0.0937,-0.14062 0.0937,-0.28125 0,-0.23437 -0.19922,-0.39843 -0.1875,-0.17578 -0.63281,-0.19922 v -0.375 h 4.66406 v 0.375 q -0.96094,0.0234 -1.60547,0.29297 -0.63281,0.26953 -1.39453,0.96093 l -2.75391,2.54297 2.75391,3.48047 q 1.14844,1.44141 1.54688,1.82813 0.5625,0.55078 0.98437,0.71484 0.29297,0.11719 1.01953,0.11719 v 0.42187 h -5.21484 v -0.42187 q 0.44531,-0.0117 0.59765,-0.12891 0.16407,-0.1289 0.16407,-0.35156 0,-0.26953 -0.46875,-0.86719 l -3.29297,-4.20703 v 3.5625 q 0,1.04297 0.14062,1.37109 0.15235,0.32813 0.42188,0.46875 0.26953,0.14063 1.17187,0.15235 v 0.42187 h -5.46093 v -0.42187 q 0.82031,0 1.23046,-0.19922 0.2461,-0.12891 0.375,-0.39844 0.17579,-0.38672 0.17579,-1.33594 v -9.77343 q 0,-1.86328 -0.082,-2.27344 -0.082,-0.42188 -0.26953,-0.57422 -0.1875,-0.16406 -0.49218,-0.16406 -0.2461,0 -0.73829,0.19922 l -0.19921,-0.41016 3.1875,-1.3125 z" />
      <path
         id="path42"
         style="font-size:24px;font-family:'Times New Roman', Times, serif;text-anchor:start;fill:#000000;stroke:#000000;stroke-width:0"
         d="m 124.93739,285.81485 h -12.41016 v -0.85547 h 12.41016 z" />
      <path
         id="path44"
         style="font-size:24px;font-family:'Times New Roman', Times, serif;text-anchor:start;fill:#000000;stroke:#000000;stroke-width:0"
         d="m 129.75379,276.10001 v 6.28125 h 3.49219 q 1.35937,0 1.81641,-0.41016 0.60937,-0.53906 0.67968,-1.89844 h 0.4336 v 5.53125 h -0.4336 q -0.16406,-1.16015 -0.32812,-1.48828 -0.21094,-0.41016 -0.69141,-0.64453 -0.48047,-0.23438 -1.47656,-0.23438 h -3.49219 v 5.23829 q 0,1.05468 0.0937,1.28906 0.0937,0.22265 0.32813,0.36328 0.23437,0.12891 0.89062,0.12891 h 2.69531 q 1.34766,0 1.95704,-0.1875 0.60937,-0.1875 1.17187,-0.73829 0.72656,-0.72656 1.48828,-2.1914 h 0.46875 l -1.37109,3.98437 h -12.2461 v -0.43359 h 0.5625 q 0.5625,0 1.06641,-0.26953 0.375,-0.1875 0.50391,-0.5625 0.14062,-0.375 0.14062,-1.53516 v -10.32422 q 0,-1.51172 -0.30469,-1.86328 -0.42187,-0.46875 -1.40625,-0.46875 h -0.5625 v -0.43359 h 12.2461 l 0.17578,3.48047 h -0.45703 q -0.2461,-1.25391 -0.55078,-1.72266 -0.29297,-0.46875 -0.87891,-0.71484 -0.46875,-0.17578 -1.65234,-0.17578 z" />
      <path
         id="path46"
         style="font-size:24px;font-family:'Times New Roman', Times, serif;text-anchor:start;fill:#000000;stroke:#000000;stroke-width:0"
         d="m 143.28895,282.3461 q 1.88672,-2.27344 3.59765,-2.27344 0.87891,0 1.51172,0.44531 0.63282,0.4336 1.00782,1.44141 0.25781,0.70313 0.25781,2.15625 v 4.58203 q 0,1.01953 0.16406,1.38281 0.12891,0.29297 0.41016,0.45704 0.29297,0.16406 1.0664,0.16406 v 0.42187 h -5.30859 v -0.42187 h 0.22266 q 0.75,0 1.04296,-0.22266 0.30469,-0.23437 0.42188,-0.67969 0.0469,-0.17578 0.0469,-1.10156 v -4.39453 q 0,-1.46484 -0.38671,-2.12109 -0.375,-0.66797 -1.27735,-0.66797 -1.39453,0 -2.77734,1.52344 v 5.66015 q 0,1.08985 0.1289,1.34766 0.16407,0.33984 0.44532,0.5039 0.29297,0.15235 1.17187,0.15235 v 0.42187 h -5.30859 v -0.42187 h 0.23437 q 0.82032,0 1.10157,-0.41016 0.29296,-0.42187 0.29296,-1.59375 v -3.98437 q 0,-1.9336 -0.0937,-2.35547 -0.082,-0.42188 -0.26953,-0.57422 -0.17578,-0.15234 -0.48047,-0.15234 -0.32812,0 -0.78515,0.17578 l -0.17578,-0.42188 3.23437,-1.3125 h 0.50391 z" />
      <path
         id="path48"
         style="font-size:24px;font-family:'Times New Roman', Times, serif;text-anchor:start;fill:#000000;stroke:#000000;stroke-width:0"
         d="m 155.03114,287.20938 q -0.98438,-0.48047 -1.51172,-1.33594 -0.52735,-0.86718 -0.52735,-1.91015 0,-1.59375 1.19532,-2.74219 1.20703,-1.14844 3.08203,-1.14844 1.53515,0 2.66015,0.75 h 2.27344 q 0.50391,0 0.58594,0.0352 0.082,0.0234 0.11719,0.0937 0.0703,0.10547 0.0703,0.375 0,0.30469 -0.0586,0.42187 -0.0351,0.0586 -0.1289,0.0937 -0.082,0.0352 -0.58594,0.0352 h -1.39453 q 0.65625,0.84375 0.65625,2.15625 0,1.5 -1.14844,2.56641 -1.14844,1.0664 -3.08203,1.0664 -0.79687,0 -1.62891,-0.23437 -0.51562,0.44531 -0.70312,0.78515 -0.17578,0.32813 -0.17578,0.5625 0,0.19922 0.1875,0.38672 0.19922,0.1875 0.76172,0.26953 0.32812,0.0469 1.64062,0.082 2.41406,0.0586 3.12891,0.16407 1.08984,0.15234 1.73437,0.80859 0.65625,0.65625 0.65625,1.61719 0,1.32422 -1.24218,2.48437 -1.82813,1.71094 -4.76954,1.71094 -2.26171,0 -3.82031,-1.01953 -0.8789,-0.58594 -0.8789,-1.21875 0,-0.28125 0.1289,-0.5625 0.19922,-0.43359 0.82031,-1.20703 0.082,-0.10547 1.19532,-1.26563 -0.60938,-0.36328 -0.86719,-0.64453 -0.24609,-0.29297 -0.24609,-0.65625 0,-0.41015 0.32812,-0.96094 0.33984,-0.55078 1.54688,-1.55859 z m 2.03906,-6.57422 q -0.86719,0 -1.45313,0.69141 -0.58593,0.6914 -0.58593,2.12109 0,1.85156 0.79687,2.8711 0.60938,0.77343 1.54688,0.77343 0.89062,0 1.46484,-0.66797 0.57422,-0.66796 0.57422,-2.09765 0,-1.86328 -0.8086,-2.91797 -0.59765,-0.77344 -1.53515,-0.77344 z m -2.15625,10.48828 q -0.55078,0.59766 -0.83203,1.11328 -0.28125,0.51563 -0.28125,0.94922 0,0.5625 0.67968,0.98438 1.17188,0.72656 3.38672,0.72656 2.10938,0 3.10547,-0.75 1.00781,-0.73828 1.00781,-1.58203 0,-0.60938 -0.59765,-0.86719 -0.60938,-0.25781 -2.41406,-0.30469 -2.63672,-0.0703 -4.05469,-0.26953 z" />
      <path
         id="path50"
         style="font-size:24px;font-family:'Times New Roman', Times, serif;text-anchor:start;fill:#000000;stroke:#000000;stroke-width:0"
         d="m 167.85145,274.45938 v 14.23828 q 0,1.00781 0.14062,1.33594 0.15235,0.32812 0.45703,0.50391 0.30469,0.16406 1.13672,0.16406 v 0.42187 h -5.26172 v -0.42187 q 0.73829,0 1.00782,-0.15235 0.26953,-0.15234 0.42187,-0.5039 0.15235,-0.35156 0.15235,-1.34766 v -9.75 q 0,-1.8164 -0.082,-2.22656 -0.082,-0.42188 -0.26953,-0.57422 -0.17578,-0.15234 -0.45703,-0.15234 -0.30469,0 -0.77344,0.1875 l -0.19921,-0.41016 3.19921,-1.3125 z" />
      <path
         id="path52"
         style="font-size:24px;font-family:'Times New Roman', Times, serif;text-anchor:start;fill:#000000;stroke:#000000;stroke-width:0"
         d="m 173.54676,274.45938 q 0.49219,0 0.83203,0.35156 0.35156,0.33985 0.35156,0.83203 0,0.49219 -0.35156,0.84375 -0.33984,0.35157 -0.83203,0.35157 -0.49219,0 -0.84375,-0.35157 -0.35156,-0.35156 -0.35156,-0.84375 0,-0.49218 0.33984,-0.83203 0.35156,-0.35156 0.85547,-0.35156 z m 0.97266,5.61328 v 8.625 q 0,1.00781 0.14062,1.34766 0.15235,0.32812 0.4336,0.49219 0.29296,0.16406 1.05468,0.16406 v 0.42187 h -5.21484 v -0.42187 q 0.78516,0 1.05469,-0.15235 0.26953,-0.15234 0.42187,-0.5039 0.16406,-0.35156 0.16406,-1.34766 v -4.13672 q 0,-1.74609 -0.10546,-2.26172 -0.082,-0.375 -0.25782,-0.51562 -0.17578,-0.15234 -0.48047,-0.15234 -0.32812,0 -0.79687,0.17578 l -0.16406,-0.42188 3.23437,-1.3125 z" />
      <path
         id="path54"
         style="font-size:24px;font-family:'Times New Roman', Times, serif;text-anchor:start;fill:#000000;stroke:#000000;stroke-width:0"
         d="m 184.41004,280.07266 v 3.65625 h -0.38672 q -0.44531,-1.72265 -1.14843,-2.34375 -0.69141,-0.62109 -1.76954,-0.62109 -0.82031,0 -1.32421,0.43359 -0.50391,0.4336 -0.50391,0.96094 0,0.65625 0.375,1.125 0.36328,0.48047 1.47656,1.01953 l 1.71094,0.83203 q 2.37891,1.16016 2.37891,3.0586 0,1.46484 -1.11329,2.36718 -1.10156,0.89063 -2.47265,0.89063 -0.98438,0 -2.25,-0.35156 -0.38672,-0.11719 -0.63281,-0.11719 -0.26954,0 -0.42188,0.30469 h -0.38672 v -3.83204 h 0.38672 q 0.32813,1.64063 1.25391,2.47266 0.92578,0.83203 2.07422,0.83203 0.80859,0 1.3125,-0.46875 0.51562,-0.48047 0.51562,-1.14844 0,-0.80859 -0.57422,-1.35937 -0.5625,-0.55078 -2.26172,-1.39453 -1.69922,-0.84375 -2.22656,-1.52344 -0.52734,-0.66797 -0.52734,-1.6875 0,-1.32422 0.90234,-2.21484 0.91406,-0.89063 2.35547,-0.89063 0.63281,0 1.53516,0.26953 0.59765,0.17578 0.79687,0.17578 0.1875,0 0.29297,-0.082 0.10547,-0.082 0.24609,-0.36328 z" />
      <path
         id="path56"
         style="font-size:24px;font-family:'Times New Roman', Times, serif;text-anchor:start;fill:#000000;stroke:#000000;stroke-width:0"
         d="m 189.95301,274.45938 v 7.85156 q 1.30078,-1.42968 2.0625,-1.82812 0.76172,-0.41016 1.52344,-0.41016 0.91406,0 1.57031,0.50391 0.65625,0.5039 0.97266,1.58203 0.22265,0.75 0.22265,2.74219 v 3.79687 q 0,1.01953 0.16407,1.39453 0.11718,0.28125 0.39843,0.44532 0.28125,0.16406 1.03125,0.16406 v 0.42187 h -5.27343 v -0.42187 h 0.24609 q 0.75,0 1.04297,-0.22266 0.29297,-0.23437 0.41015,-0.67969 0.0352,-0.1875 0.0352,-1.10156 v -3.79687 q 0,-1.75782 -0.1875,-2.3086 -0.17578,-0.55078 -0.57422,-0.82031 -0.39844,-0.28125 -0.96094,-0.28125 -0.57421,0 -1.19531,0.30469 -0.62109,0.30469 -1.48828,1.23047 v 5.67187 q 0,1.10156 0.11719,1.3711 0.1289,0.26953 0.45703,0.45703 0.33984,0.17578 1.16016,0.17578 v 0.42187 h -5.32032 v -0.42187 q 0.71485,0 1.125,-0.22266 0.23438,-0.11719 0.375,-0.44531 0.14063,-0.32813 0.14063,-1.33594 v -9.71484 q 0,-1.83985 -0.0937,-2.26172 -0.082,-0.42188 -0.26953,-0.57422 -0.17578,-0.15234 -0.48047,-0.15234 -0.2461,0 -0.79688,0.1875 l -0.16406,-0.41016 3.21094,-1.3125 z" />
      <path
         id="path58"
         style="font-size:24px;font-family:'Times New Roman', Times, serif;text-anchor:start;fill:#000000;stroke:#000000;stroke-width:0"
         d="m 217.80848,286.72891 0.38672,0.082 -1.35938,4.3125 h -12.30468 v -0.43359 h 0.59765 q 1.00781,0 1.44141,-0.65625 0.24609,-0.375 0.24609,-1.73438 v -10.2539 q 0,-1.48828 -0.32812,-1.86328 -0.45703,-0.51563 -1.35938,-0.51563 h -0.59765 v -0.43359 h 7.19531 v 0.43359 q -1.26563,-0.0117 -1.78125,0.23438 -0.50391,0.24609 -0.69141,0.62109 -0.1875,0.375 -0.1875,1.79297 v 9.98437 q 0,0.97266 0.1875,1.33594 0.14063,0.2461 0.4336,0.36328 0.29296,0.11719 1.82812,0.11719 h 1.16016 q 1.82812,0 2.5664,-0.26953 0.73828,-0.26953 1.34766,-0.94922 0.60937,-0.69141 1.21875,-2.16797 z" />
      <path
         id="path60"
         style="font-size:24px;font-family:'Times New Roman', Times, serif;text-anchor:start;fill:#000000;stroke:#000000;stroke-width:0"
         d="m 221.27723,284.43204 q -0.0117,2.39062 1.16016,3.75 1.17187,1.35937 2.7539,1.35937 1.05469,0 1.82813,-0.57422 0.78515,-0.58593 1.3125,-1.99218 l 0.36328,0.23437 q -0.2461,1.60547 -1.42969,2.92969 -1.18359,1.3125 -2.96484,1.3125 -1.9336,0 -3.31641,-1.5 -1.37109,-1.51172 -1.37109,-4.05469 0,-2.75391 1.40625,-4.28906 1.41797,-1.54688 3.55078,-1.54688 1.80469,0 2.96484,1.19532 1.16016,1.18359 1.16016,3.17578 z m 0,-0.67969 h 4.96875 q -0.0586,-1.03125 -0.24609,-1.45313 -0.29297,-0.65625 -0.87891,-1.03125 -0.57422,-0.375 -1.20703,-0.375 -0.97266,0 -1.7461,0.76172 -0.76171,0.75 -0.89062,2.09766 z" />
      <path
         id="path62"
         style="font-size:24px;font-family:'Times New Roman', Times, serif;text-anchor:start;fill:#000000;stroke:#000000;stroke-width:0"
         d="m 229.67957,280.38907 h 5.05078 v 0.43359 q -0.48046,0 -0.67968,0.16406 -0.1875,0.16407 -0.1875,0.4336 0,0.28125 0.41015,0.86719 0.12891,0.1875 0.38672,0.58593 l 0.76172,1.21875 0.87891,-1.21875 q 0.84375,-1.16015 0.84375,-1.46484 0,-0.24609 -0.19922,-0.41016 -0.19922,-0.17578 -0.64453,-0.17578 v -0.43359 h 3.63281 v 0.43359 q -0.57422,0.0352 -0.99609,0.31641 -0.57422,0.39844 -1.57032,1.73437 l -1.46484,1.95703 2.67187,3.84375 q 0.98438,1.41797 1.40625,1.71094 0.42188,0.28125 1.08985,0.31641 v 0.42187 h -5.0625 v -0.42187 q 0.52734,0 0.82031,-0.23438 0.22266,-0.16406 0.22266,-0.43359 0,-0.26953 -0.75,-1.35938 l -1.57032,-2.29687 -1.72265,2.29687 q -0.79688,1.06641 -0.79688,1.26563 0,0.28125 0.25782,0.51562 0.26953,0.22266 0.79687,0.2461 v 0.42187 h -3.50391 v -0.42187 q 0.42188,-0.0586 0.73829,-0.29297 0.44531,-0.33984 1.5,-1.73438 l 2.25,-2.98828 -2.03907,-2.95312 q -0.86718,-1.26563 -1.34765,-1.58203 -0.46875,-0.32813 -1.1836,-0.32813 z" />
      <path
         id="path64"
         style="font-size:24px;font-family:'Times New Roman', Times, serif;text-anchor:start;fill:#000000;stroke:#000000;stroke-width:0"
         d="m 244.84364,274.45938 q 0.49218,0 0.83203,0.35156 0.35156,0.33985 0.35156,0.83203 0,0.49219 -0.35156,0.84375 -0.33985,0.35157 -0.83203,0.35157 -0.49219,0 -0.84375,-0.35157 -0.35157,-0.35156 -0.35157,-0.84375 0,-0.49218 0.33985,-0.83203 0.35156,-0.35156 0.85547,-0.35156 z m 0.97265,5.61328 v 8.625 q 0,1.00781 0.14063,1.34766 0.15234,0.32812 0.43359,0.49219 0.29297,0.16406 1.05469,0.16406 v 0.42187 h -5.21485 v -0.42187 q 0.78516,0 1.05469,-0.15235 0.26953,-0.15234 0.42188,-0.5039 0.16406,-0.35156 0.16406,-1.34766 v -4.13672 q 0,-1.74609 -0.10547,-2.26172 -0.082,-0.375 -0.25781,-0.51562 -0.17578,-0.15234 -0.48047,-0.15234 -0.32813,0 -0.79688,0.17578 l -0.16406,-0.42188 3.23438,-1.3125 z" />
      <path
         id="path66"
         style="font-size:24px;font-family:'Times New Roman', Times, serif;text-anchor:start;fill:#000000;stroke:#000000;stroke-width:0"
         d="m 257.8866,287.04532 q -0.43359,2.12109 -1.69921,3.26953 -1.26563,1.13672 -2.80079,1.13672 -1.82812,0 -3.1875,-1.53516 -1.35937,-1.53515 -1.35937,-4.14844 0,-2.53125 1.5,-4.11328 1.51172,-1.58203 3.62109,-1.58203 1.58203,0 2.60157,0.84375 1.01953,0.83203 1.01953,1.73438 0,0.44531 -0.29297,0.72656 -0.28125,0.26953 -0.79688,0.26953 -0.6914,0 -1.04297,-0.44531 -0.19921,-0.2461 -0.26953,-0.9375 -0.0586,-0.69141 -0.46875,-1.05469 -0.41015,-0.35156 -1.13672,-0.35156 -1.17187,0 -1.88671,0.86719 -0.94922,1.14843 -0.94922,3.03515 0,1.92188 0.9375,3.39844 0.94922,1.46484 2.55468,1.46484 1.14844,0 2.0625,-0.78515 0.64454,-0.53907 1.25391,-1.95703 z" />
      <path
         id="path68"
         style="font-size:24px;font-family:'Times New Roman', Times, serif;text-anchor:start;fill:#000000;stroke:#000000;stroke-width:0"
         d="m 264.66004,280.07266 q 2.4375,0 3.91406,1.85156 1.25391,1.58204 1.25391,3.63282 0,1.4414 -0.69141,2.91797 -0.6914,1.47656 -1.91015,2.22656 -1.20703,0.75 -2.69531,0.75 -2.42579,0 -3.85547,-1.9336 -1.20703,-1.6289 -1.20703,-3.65625 0,-1.47656 0.72656,-2.92968 0.73828,-1.46485 1.93359,-2.15625 1.19531,-0.70313 2.53125,-0.70313 z m -0.36328,0.76172 q -0.62109,0 -1.25391,0.375 -0.62109,0.36328 -1.00781,1.28906 -0.38672,0.92578 -0.38672,2.37891 0,2.34375 0.92578,4.04297 0.9375,1.69922 2.46094,1.69922 1.13672,0 1.875,-0.9375 0.73828,-0.9375 0.73828,-3.22266 0,-2.85937 -1.23047,-4.5 -0.83203,-1.125 -2.12109,-1.125 z" />
      <path
         id="path70"
         style="font-size:24px;font-family:'Times New Roman', Times, serif;text-anchor:start;fill:#000000;stroke:#000000;stroke-width:0"
         d="m 274.53895,282.3461 q 1.88672,-2.27344 3.59765,-2.27344 0.87891,0 1.51172,0.44531 0.63282,0.4336 1.00782,1.44141 0.25781,0.70313 0.25781,2.15625 v 4.58203 q 0,1.01953 0.16406,1.38281 0.12891,0.29297 0.41016,0.45704 0.29297,0.16406 1.0664,0.16406 v 0.42187 h -5.30859 v -0.42187 h 0.22266 q 0.75,0 1.04296,-0.22266 0.30469,-0.23437 0.42188,-0.67969 0.0469,-0.17578 0.0469,-1.10156 v -4.39453 q 0,-1.46484 -0.38671,-2.12109 -0.375,-0.66797 -1.27735,-0.66797 -1.39453,0 -2.77734,1.52344 v 5.66015 q 0,1.08985 0.1289,1.34766 0.16407,0.33984 0.44532,0.5039 0.29297,0.15235 1.17187,0.15235 v 0.42187 h -5.30859 v -0.42187 h 0.23437 q 0.82032,0 1.10157,-0.41016 0.29296,-0.42187 0.29296,-1.59375 v -3.98437 q 0,-1.9336 -0.0937,-2.35547 -0.082,-0.42188 -0.26953,-0.57422 -0.17578,-0.15234 -0.48047,-0.15234 -0.32812,0 -0.78515,0.17578 l -0.17578,-0.42188 3.23437,-1.3125 h 0.50391 z" />
    </g>
  </g>
</svg>
